
xxxxxxxxxxxxxxxxxxxxxxxxxxxxxxxxxxxxxxxxxxxxxxxxxxxxxxxxxxxxxxxxxxxxxxxxxxxxxxxx

Blade Runner
2009 Electric Unicorn Cut

 [ REQUESTED RELEASE:  HQ DVD QUALITY 400p (720x304) 5.1 Channel Audio Encode ]

Audio Track #1: Deckard voice-overs included
Audio Track #2: no voice-overs

Director: Ridley Scott

xxxxxxxxxxxxxxxxxxxxxxxxxxxxxxxxxxxxxxxxxxxxxxxxxxxxxxxxxxxxxxxxxxxxxxxxxxxxxxxx

OFFICIAL VERSIONS INFO:
 
http://www.imdb.com/title/tt0083658/
 
http://www.imdb.com/title/tt0083658/alternateversions
 
http://en.wikipedia.org/wiki/Blade_Runner
 
http://en.wikipedia.org/wiki/Versions_of_Blade_Runner

xxxxxxxxxxxxxxxxxxxxxxxxxxxxxxxxxxxxxxxxxxxxxxxxxxxxxxxxxxxxxxxxxxxxxxxxxxxxxxxx

ELECTRIC UNICORN CUT VERSION INFO:

Original Runtime: 117 min
New Runtime: 127 min
Amount of time Cut/Added: 10 min added

Additional Scenes:

-Encyclopedia definition of replicants, just before the rollup text
-Deckard visiting Holden at the hospital
-Longer ride to Tyrell Corp (to maker room for longer voice over)
-Custom made search-of-Leons-apartment-scene
-Custom made Unicorn-dream-scene (he asleep in this one, not opening his eyes
 like in the final cut)
-Deckard looking at photo of himself and his wife
-Deckard eating noodles and thinking of fish scales
-Short clip of topless Rachel in the make-out scene
-Bryant and Gaff looking at Deckard and Holden talking about "metaphysics"
-Longer Batty-and-JF-Sebastian-going-to-Tyrell-scene
-Longer Batty-leaving-Tyrell-scene
-Gaff saying "are you sure you are a man" before saying "i guess you’re
 through"
-"I think you and I are made for eachother"-scene after the end credits
-plus some other bits and pieces stuck in here and there

xxxxxxxxxxxxxxxxxxxxxxxxxxxxxxxxxxxxxxxxxxxxxxxxxxxxxxxxxxxxxxxxxxxxxxxxxxxxxxxx

MAN HAS MADE HIS MATCH ...NOW IT'S HIS PROBLEM.

xxxxxxxxxxxxxxxxxxxxxxxxxxxxxxxxxxxxxxxxxxxxxxxxxxxxxxxxxxxxxxxxxxxxxxxxxxxxxxxx

Harrison Ford	 ...	Rick Deckard
Rutger Hauer	 ...	Roy Batty
Sean Young	 ...	Rachael
Edward James Olmos	 ...	Gaff
M. Emmet Walsh	 ...	Bryant
Daryl Hannah	 ...	Pris
William Sanderson	 ...	J.F. Sebastian
Brion James	 ...	Leon Kowalski
Joe Turkel	 ...	Dr. Eldon Tyrell
Joanna Cassidy	 ...	Zhora
James Hong	 ...	Hannibal Chew
Morgan Paull	 ...	Holden

xxxxxxxxxxxxxxxxxxxxxxxxxxxxxxxxxxxxxxxxxxxxxxxxxxxxxxxxxxxxxxxxxxxxxxxxxxxxxxxx

Other 272p movies: 
http://thepiratebay.com/tag/FaCTFiCTioN

Other versions of Blade Runner in 272p: 
http://thepiratebay.com/tag/Blade+Runner+272p

xxxxxxxxxxxxxxxxxxxxxxxxxxxxxxxxxxxxxxxxxxxxxxxxxxxxxxxxxxxxxxxxxxxxxxxxxxxxxxxx

General
Format                           : MPEG-4
Format profile                   : Base Media / Version 2
Codec ID                         : mp42
File size                        : 1.42 GiB
Duration                         : 2h 7mn
Overall bit rate                 : 1 589 Kbps

Video
ID                               : 1
Format                           : AVC
Format/Info                      : Advanced Video Codec
Format profile                   : Baseline@L3.0
Format settings, CABAC           : No
Format settings, ReFrames        : 2 frames
Codec ID                         : avc1
Codec ID/Info                    : Advanced Video Coding
Duration                         : 2h 7mn
Bit rate mode                    : Variable
Bit rate                         : 1 200 Kbps
Width                            : 720 pixels
Height                           : 304 pixels
Display aspect ratio             : 2.35:1
Frame rate mode                  : Variable
Frame rate                       : 23.976 fps
Minimum frame rate               : 23.974 fps
Maximum frame rate               : 23.981 fps
Color space                      : YUV
Chroma subsampling               : 4:2:0
Bit depth                        : 8 bits
Scan type                        : Progressive
Bits/(Pixel*Frame)               : 0.229
Stream size                      : 1.07 GiB (76%)
Writing library                  : x264 core 79

Audio #1
ID                               : 2
Format                           : AAC
Format/Info                      : Advanced Audio Codec
Format profile                   : LC
Codec ID                         : 40
Duration                         : 2h 7mn
Bit rate mode                    : Variable
Bit rate                         : 192 Kbps
Maximum bit rate                 : 258 Kbps
Channel(s)                       : 6 channels
Channel positions                : Front: L C R, Side: L R, LFE
Sampling rate                    : 48.0 KHz
Compression mode                 : Lossy
Stream size                      : 175 MiB (12%)
Language                         : English

Audio #2
ID                               : 3
Format                           : AAC
Format/Info                      : Advanced Audio Codec
Format profile                   : LC
Codec ID                         : 40
Duration                         : 2h 7mn
Bit rate mode                    : Variable
Bit rate                         : 192 Kbps
Maximum bit rate                 : 258 Kbps
Channel(s)                       : 6 channels
Channel positions                : Front: L C R, Side: L R, LFE
Sampling rate                    : 48.0 KHz
Compression mode                 : Lossy
Stream size                      : 175 MiB (12%)
Language                         : English


xxxxxxxxxxxxxxxxxxxxxxxxxxxxxxxxxxxxxxxxxxxxxxxxxxxxxxxxxxxxxxxxxxxxxxxxxxxxxxxx

FaCTFiCTioN ... 1. A work of fiction based in fact.
                2. A work of fiction which later becomes fact.

xxxxxxxxxxxxxxxxxxxxxxxxxxxxxxxxxxxxxxxxxxxxxxxxxxxxxxxxxxxxxxxxxxxxxxxxxxxxxxxx

272p = 272 lines of pixels in a 16:9 aspect ratio video with a 480 pixel width.

A 480x208 pixel video with an aspect ratio of 2.35:1 or a 480x352 pixel video
with an aspect ratio of 4:3 are also considered 272p.

272p m4v/mp4 format videos are easily played on PCs, Macs, smartphones, tablets,
game consoles, and portable multimedia players such as iPods, Zunes, PSPs, etc.
